<svg width="166" height="52" viewBox="0 0 166 52" fill="none" xmlns="http://www.w3.org/2000/svg">
<path d="M1.91832 39.5381L-2.20087e-05 28.6558H0.130774C0.653959 30.0377 1.33701 31.4052 2.17992 32.7583C3.02283 34.0826 3.92387 35.1765 4.88304 36.0402C5.75501 36.8175 6.68512 37.4221 7.67336 37.8539C8.6616 38.257 9.64984 38.4585 10.6381 38.4585C12.2658 38.4585 13.6173 37.8971 14.6928 36.7743C15.7682 35.6516 16.3059 34.2121 16.3059 32.456C16.3059 30.7862 15.7246 29.246 14.562 27.8353C13.4284 26.4246 11.5101 25.0716 8.80693 23.776C6.191 22.5093 4.30172 21.185 3.13909 19.8031C1.97646 18.4213 1.39514 16.7803 1.39514 14.8802C1.39514 13.4119 1.70033 12.1308 2.31071 11.0368C2.9211 9.94285 3.74947 9.10796 4.79584 8.53218C5.84221 7.9276 7.00485 7.62532 8.28374 7.62532C8.83599 7.62532 9.37371 7.69729 9.8969 7.84124C10.4201 7.95639 11.045 8.14352 11.7716 8.40263C12.6146 8.71931 13.1959 8.87765 13.5156 8.87765C13.8935 8.87765 14.1696 8.74809 14.344 8.48899C14.5474 8.22989 14.6782 7.81245 14.7364 7.23666H14.8672L16.8291 16.0893H16.6983C16.1751 14.9953 15.4921 13.8726 14.6492 12.721C13.8063 11.5406 12.9924 10.605 12.2076 9.91406C11.4229 9.19433 10.7253 8.70491 10.1149 8.44581C9.53357 8.18671 8.92319 8.05716 8.28374 8.05716C7.06298 8.05716 6.03114 8.4746 5.18823 9.30948C4.37439 10.1444 3.96747 11.3247 3.96747 12.8506C3.96747 14.4052 4.44705 15.7151 5.40623 16.7803C6.39446 17.8455 7.99308 18.9107 10.2021 19.9759C13.5156 21.5881 15.7973 23.2434 17.0471 24.942C18.2969 26.6118 18.9218 28.4255 18.9218 30.3832C18.9218 32.0817 18.5585 33.5787 17.8319 34.8743C17.1052 36.1698 16.1025 37.163 14.8236 37.8539C13.5737 38.5449 12.1786 38.8903 10.6381 38.8903C9.70797 38.8903 8.83599 38.8184 8.02215 38.6744C7.23737 38.5305 6.35086 38.329 5.36263 38.0699C4.31626 37.8395 3.69134 37.7244 3.48788 37.7244C3.08096 37.7244 2.76123 37.8683 2.52871 38.1562C2.29618 38.4153 2.13632 38.876 2.04912 39.5381H1.91832Z" fill="black"/>
<path d="M55.0216 7.33504L36.1434 37.3357C34.8354 39.1494 33.4839 40.9056 32.0887 42.6041C30.6935 44.3027 29.2257 45.8141 27.6852 47.1384C26.1447 48.4627 24.517 49.5135 22.8022 50.2908C21.0873 51.0969 19.2707 51.5 17.3523 51.5C16.3931 51.5 15.463 51.3848 14.562 51.1545C13.69 50.9242 12.9052 50.5644 12.2077 50.0749C11.5391 49.6143 11.0014 49.0241 10.5945 48.3044C10.1876 47.5847 9.98412 46.7354 9.98412 45.7566C9.98412 44.9793 10.1294 44.2739 10.4201 43.6406C10.7108 43.036 11.0886 42.5178 11.5537 42.0859C12.0187 41.6829 12.5564 41.3662 13.1668 41.1359C13.8063 40.9056 14.4457 40.7904 15.0852 40.7904C15.7537 40.7904 16.4367 40.9056 17.1343 41.1359C17.8319 41.3662 18.4277 41.6397 18.9219 41.9564L18.7475 42.3019C18.2533 42.1003 17.7447 41.9132 17.2215 41.7405C16.6983 41.5677 16.1751 41.4814 15.652 41.4814C14.809 41.4814 14.0388 41.8556 13.3412 42.6041C12.6727 43.3527 12.3384 44.5042 12.3384 46.0589C12.3384 47.5847 12.8471 48.7794 13.8644 49.6431C14.9108 50.5356 16.2623 50.9818 17.9191 50.9818C19.2852 50.9818 20.6367 50.6075 21.9738 49.859C23.3108 49.1105 24.6042 48.1173 25.8541 46.8793C27.1039 45.6702 28.3101 44.3027 29.4728 42.7769C30.6645 41.2511 31.7835 39.7108 32.8299 38.1562C33.8762 36.6016 34.8499 35.1046 35.751 33.6651C36.6811 32.2257 37.524 31.0021 38.2797 29.9945L38.1925 29.9081C37.3496 30.9157 36.3614 31.9809 35.2278 33.1037C34.1233 34.1977 32.9607 35.2053 31.7399 36.1266C30.5191 37.019 29.2838 37.7676 28.034 38.3721C26.8132 38.9479 25.6506 39.2358 24.5461 39.2358C23.2672 39.2358 22.3371 38.9479 21.7558 38.3721C21.1745 37.7964 20.8838 36.9615 20.8838 35.8675C20.8838 34.975 21.2326 33.8666 21.9302 32.5423C22.6568 31.218 23.5433 29.793 24.5897 28.2671C25.6651 26.7125 26.9481 24.2428 28.1979 22.5731C29.4478 20.9033 30.5959 19.2767 31.6422 17.6933C32.7177 16.1099 33.6042 14.6273 34.3018 13.2454C35.0284 11.8635 35.3917 10.6975 35.3917 9.74749C35.3917 9.17171 35.2028 8.71108 34.8249 8.36561C34.4762 7.99135 33.953 7.80422 33.2554 7.80422C32.0346 7.80422 30.6831 8.1209 29.2007 8.75426C27.7183 9.38763 26.3232 10.2369 25.0152 11.3021C23.7363 12.3673 22.6609 13.5764 21.7889 14.9295C20.9169 16.2826 20.4809 17.6789 20.4809 19.1184C20.4809 20.0108 20.6844 20.7593 21.0913 21.3639C21.5273 21.9397 22.1958 22.2276 23.0969 22.2276C23.7654 22.2276 24.3758 22.1412 24.928 21.9685C25.4803 21.7958 25.9744 21.5654 26.4104 21.2775C26.8754 20.9609 27.2969 20.601 27.6747 20.198C28.0526 19.7949 28.4159 19.3775 28.7647 18.9456L29.1135 18.9888C28.445 19.9964 27.5875 20.8745 26.5412 21.623C25.5239 22.3715 24.3176 22.7458 22.9225 22.7458C21.7017 22.7458 20.8297 22.3715 20.3066 21.623C19.7834 20.8457 19.5218 19.982 19.5218 19.032C19.5218 17.7077 19.9723 16.3546 20.8733 14.9727C21.7744 13.5908 22.9079 12.3385 24.274 11.2157C25.6401 10.0642 27.137 9.12852 28.7647 8.40879C30.4215 7.66027 32.0056 7.28602 33.517 7.28602C34.9121 7.28602 35.9585 7.57391 36.6561 8.14969C37.3827 8.69668 37.8952 10.293 37.7316 11.7505C37.612 12.8164 37.3827 12.9287 36.6561 14.2818C35.9585 15.6349 35.072 17.1031 33.9966 18.6865C32.9502 20.2411 31.8021 21.8677 30.5523 23.5663C29.3024 25.2361 28.0195 27.7058 26.944 29.2604C25.8977 30.815 25.0112 32.2544 24.2845 33.5787C23.5869 34.903 23.2381 35.9826 23.2381 36.8175C23.2381 37.566 23.4125 38.0699 23.7613 38.329C24.1101 38.5881 24.4734 38.7176 24.8513 38.7176C25.7814 38.7176 26.915 38.3865 28.252 37.7244C29.589 37.0334 30.9697 36.1122 32.3939 34.9606C33.8472 33.8091 35.2714 32.4704 36.6666 30.9445C38.0908 29.4187 39.3697 27.8065 40.5033 26.108L51.8825 7.33504H55.0216Z" fill="black"/>
<path d="M79.9165 34.572C80.1491 36.8175 80.8466 38.3966 82.0093 38.9436V39.0731H73.9435V38.9436C74.6411 38.7996 75.1497 38.3002 75.4695 37.8108C75.8183 37.2925 75.9926 36.5584 75.9926 35.6084C75.9926 35.1765 75.9781 34.8311 75.9491 34.572L73.7691 9.85269L65.2674 35.6948H65.1366L55.5884 11.2216L53.9753 31.0741C53.9171 31.8226 53.8881 32.3408 53.8881 32.6287C53.8881 36.1122 55.0519 38.339 57.4353 38.9436V39.0731H49.6311V38.9436C50.5903 38.6845 51.4465 37.71 52.1441 36.3857C52.8708 35.0614 53.3213 33.2909 53.4957 31.0741L55.0216 12.6466C55.0507 12.4739 55.0652 12.2148 55.0652 11.8693C55.0652 9.56621 54.0043 8.09796 51.8825 7.4646V7.33504H58.1608L66.7933 29.7354L74.0743 7.30485H79.8729V7.4344C79.1754 7.57835 78.6522 7.89503 78.3034 8.38444C77.9837 8.87386 77.8238 9.57919 77.8238 10.5004C77.8238 10.9323 77.8383 11.2634 77.8674 11.4937L79.9165 34.572Z" fill="black"/>
<path d="M101.367 17.2553L101.847 17.2121C101.978 17.903 102.152 19.1122 102.152 20.3213C102.152 25.6761 99.1 30.4263 93.0398 30.4263C88.6363 30.4263 86.0204 27.4035 86.0204 23.1283C86.0204 13.671 98.9256 7.02074 108.43 7.02074C112.31 7.02074 115.624 7.71169 118.85 9.05038C121.117 8.10034 123.472 7.1503 125.957 7.02074L126.19 7.28395C124.577 7.28395 121.03 8.57536 119.94 9.61177C122.164 10.8641 123.602 12.8937 123.602 15.4848C123.602 20.4509 118.065 22.351 114.011 22.9987L113.967 23.0851C117.586 23.5169 121.161 24.0351 121.161 28.5694C121.161 34.9174 115.144 38.8903 109.215 38.8903C106.773 38.8903 103.852 37.6812 103.852 35.0038C103.852 33.5356 105.073 32.2401 106.555 32.2401C107.427 32.2401 108.212 32.5423 108.866 33.1037C107.689 33.7947 107.166 34.8743 107.166 36.1266C107.166 37.5948 108.038 38.3721 109.52 38.3721C114.098 38.3721 116.975 32.8446 116.975 28.8285C116.975 25.0284 114.97 23.3442 110.828 23.3442L110.872 22.9987C115.144 22.7396 119.679 20.4509 119.679 15.312C119.679 13.7142 119.112 12.1596 117.847 11.08C109.128 17.9462 106.73 38.8903 89.4647 38.8903C85.7588 38.8903 82.0093 36.8607 82.0093 33.3196C82.0093 31.6787 82.9249 30.2536 84.756 30.2536C86.1076 30.2536 86.9359 31.1605 86.9359 32.3696C86.9359 33.4492 86.064 34.2697 85.3664 34.3992C85.3228 34.572 85.3228 34.7447 85.3228 34.9174C85.3228 37.2494 86.9359 38.3721 89.8571 38.3721C101.76 38.3721 103.547 17.1257 116.67 10.13C114.36 8.35944 111.09 7.53895 108.169 7.53895C99.8848 7.53895 89.5083 13.4983 89.5083 23.301C89.5083 26.108 91.0342 29.649 94.3477 29.649C98.8384 29.649 101.629 25.2443 101.629 20.4941C101.629 19.1122 101.454 18.1622 101.367 17.2553Z" fill="black"/>
<path d="M125.896 38.9436C126.303 38.7421 126.608 38.4542 126.812 38.0799C127.015 37.6769 127.117 37.0435 127.117 36.1798L127.178 9.91406C127.178 9.05038 127.076 8.43141 126.872 8.05715C126.669 7.65411 126.364 7.35182 125.957 7.1503V7.02074H132.322V7.1503C131.915 7.35182 131.61 7.65411 131.407 8.05715C131.203 8.43141 131.101 9.05038 131.101 9.91406L131.041 36.1798C131.041 37.0435 131.143 37.6769 131.346 38.0799C131.55 38.4542 131.855 38.7421 132.262 38.9436V39.0731H125.896V38.9436Z" fill="black"/>
<path d="M153.234 40.1446C153.06 39.3673 152.406 38.9787 151.272 38.9787H135.272V38.8491C135.678 38.6476 135.984 38.3597 136.187 37.9854C136.391 37.5824 136.492 36.949 136.492 36.0853V10.2696C136.492 9.40592 136.391 8.78695 136.187 8.41269C135.984 8.00964 135.678 7.70735 135.272 7.50583V7.37628H147.828C148.933 7.37628 149.587 6.98763 149.79 6.21032H149.921L153.67 15.3221H153.496C152.449 13.7099 151.49 12.4288 150.618 11.4787C149.746 10.4999 148.86 9.73699 147.959 9.19C147.087 8.643 146.302 8.28314 145.604 8.1104C144.907 7.90888 144.195 7.80812 143.468 7.80812C142.364 7.80812 141.579 7.99525 141.114 8.36951C140.649 8.71498 140.416 9.30515 140.416 10.14L140.494 20.7532H145.377C146.569 20.7532 147.383 20.3933 147.819 19.6736C148.284 18.9539 148.488 17.8311 148.429 16.3052H148.56L151.263 25.3307H151.133C150.29 23.8624 149.447 22.8116 148.604 22.1782C147.761 21.5161 146.685 21.185 145.377 21.185H140.494L140.416 35.2649C140.416 36.5316 140.765 37.3953 141.463 37.8559C142.16 38.3165 143.395 38.5468 145.168 38.5468C146.418 38.5468 147.537 38.4173 148.526 38.1582C149.514 37.8991 150.458 37.424 151.36 36.7331C152.202 36.071 153.118 35.1209 154.106 33.883C155.124 32.645 156.126 31.1048 157.115 29.2623H157.289L153.365 40.1446H153.234ZM141.759 5.2934V5.16384L148.865 0.5H148.996C148.938 0.845469 148.909 1.11897 148.909 1.32049C148.909 1.92506 149.04 2.47206 149.301 2.96147C149.563 3.45089 149.941 3.76757 150.435 3.91152V4.04107L141.759 5.2934Z" fill="black"/>
<path d="M162.904 39.2358C162.875 39.0631 162.657 38.7752 162.251 38.3721L160.855 36.9903C160.507 36.6448 160.216 36.4433 159.983 36.3857V36.2561C160.216 36.1986 160.507 35.997 160.855 35.6516L162.251 34.2697C162.657 33.8666 162.875 33.5787 162.904 33.406H163.079C163.108 33.5787 163.326 33.8666 163.733 34.2697L165.128 35.6516C165.506 36.0258 165.797 36.2273 166 36.2561V36.3857C165.797 36.4145 165.506 36.616 165.128 36.9903L163.733 38.3721C163.326 38.7752 163.108 39.0631 163.079 39.2358H162.904Z" fill="black"/>
</svg>
