<svg width="696" height="216" viewBox="0 0 696 216" fill="none" xmlns="http://www.w3.org/2000/svg">
<path d="M8.04309 165.338L-9.22776e-05 119.248H0.548306C2.7419 125.101 5.60576 130.892 9.13989 136.623C12.674 142.232 16.4519 146.865 20.4735 150.523C24.1295 153.815 28.0292 156.376 32.1726 158.205C36.3161 159.912 40.4596 160.765 44.603 160.765C51.4275 160.765 57.0943 158.388 61.6034 153.633C66.1124 148.877 68.367 142.781 68.367 135.343C68.367 128.271 65.9296 121.748 61.055 115.773C56.3022 109.798 48.259 104.068 36.9254 98.5809C25.9575 93.2159 18.0361 87.6071 13.1615 81.7544C8.28682 75.9018 5.8495 68.9517 5.8495 60.9043C5.8495 54.6859 7.12909 49.26 9.68829 44.6266C12.2475 39.9932 15.7207 36.4572 20.1079 34.0186C24.4951 31.4581 29.3697 30.1778 34.7318 30.1778C37.0473 30.1778 39.3018 30.4826 41.4954 31.0923C43.689 31.58 46.3092 32.3726 49.3558 33.4699C52.8899 34.8112 55.3273 35.4818 56.6678 35.4818C58.2521 35.4818 59.4098 34.9331 60.141 33.8357C60.9941 32.7384 61.5425 30.9704 61.7862 28.5318H62.3346L70.5606 66.0254H70.0122C67.8186 61.392 64.9547 56.6368 61.4206 51.7595C57.8865 46.7604 54.4742 42.7976 51.1838 39.8713C47.8934 36.823 44.9686 34.7502 42.4094 33.6528C39.9721 32.5555 37.4129 32.0068 34.7318 32.0068C29.6134 32.0068 25.2872 33.7748 21.7531 37.3108C18.3408 40.8467 16.6347 45.8459 16.6347 52.3082C16.6347 58.8925 18.6455 64.4403 22.6671 68.9517C26.8105 73.4632 33.5132 77.9746 42.775 82.486C56.6678 89.3141 66.2343 96.3251 71.4746 103.519C76.7148 110.591 79.3349 118.273 79.3349 126.564C79.3349 133.758 77.8116 140.098 74.765 145.585C71.7183 151.072 67.5139 155.279 62.1518 158.205C56.9115 161.131 51.0619 162.594 44.603 162.594C40.7033 162.594 37.0473 162.29 33.635 161.68C30.3446 161.07 26.6277 160.217 22.4843 159.119C18.0971 158.144 15.4769 157.656 14.6239 157.656C12.9177 157.656 11.5772 158.266 10.6023 159.485C9.62735 160.583 8.95709 162.533 8.59149 165.338H8.04309Z" fill="white"/>
<path d="M230.693 28.9484L151.541 156.01C146.057 163.692 140.39 171.13 134.541 178.323C128.691 185.517 122.537 191.919 116.078 197.528C109.619 203.136 102.794 207.587 95.6042 210.879C88.4141 214.293 80.7974 216 72.7542 216C68.7327 216 64.8329 215.512 61.0551 214.537C57.3991 213.561 54.1087 212.037 51.1839 209.964C48.381 208.014 46.1264 205.514 44.4203 202.466C42.7142 199.417 41.8611 195.82 41.8611 191.675C41.8611 188.383 42.4704 185.395 43.6891 182.713C44.9078 180.152 46.492 177.958 48.4419 176.129C50.3918 174.422 52.6463 173.08 55.2055 172.105C57.8866 171.13 60.5676 170.642 63.2487 170.642C66.0516 170.642 68.9155 171.13 71.8403 172.105C74.765 173.08 77.2633 174.239 79.335 175.58L78.6038 177.043C76.5321 176.19 74.3995 175.397 72.2059 174.666C70.0123 173.934 67.8187 173.568 65.6251 173.568C62.0909 173.568 58.8615 175.153 55.9367 178.323C53.1338 181.494 51.7323 186.371 51.7323 192.955C51.7323 199.417 53.865 204.478 58.1303 208.135C62.5175 211.915 68.1843 213.805 75.1307 213.805C80.8584 213.805 86.5252 212.22 92.131 209.05C97.7369 205.88 103.16 201.673 108.4 196.43C113.64 191.309 118.698 185.517 123.573 179.055C128.569 172.593 133.261 166.069 137.648 159.485C142.035 152.901 146.118 146.561 149.896 140.464C153.795 134.367 157.33 129.185 160.498 124.918L160.132 124.552C156.598 128.82 152.455 133.331 147.702 138.086C143.071 142.72 138.197 146.987 133.078 150.889C127.96 154.669 122.78 157.839 117.54 160.4C112.422 162.838 107.547 164.058 102.916 164.058C97.5541 164.058 93.6543 162.838 91.217 160.4C88.7797 157.961 87.561 154.425 87.561 149.792C87.561 146.012 89.0234 141.318 91.9482 135.709C94.9949 130.1 98.7118 124.064 103.099 117.602C107.608 111.018 112.987 100.558 118.227 93.4859C123.468 86.4139 128.281 79.5249 132.669 72.8187C137.178 66.1125 140.895 59.8331 143.819 53.9804C146.866 48.1277 148.389 43.1895 148.389 39.1658C148.389 36.7272 147.597 34.7763 146.013 33.3132C144.551 31.7281 142.357 30.9355 139.432 30.9355C134.314 30.9355 128.647 32.2768 122.432 34.9592C116.217 37.6417 110.367 41.2387 104.883 45.7501C99.521 50.2615 95.0119 55.3826 91.3559 61.1133C87.6999 66.8441 85.8719 72.7577 85.8719 78.8542C85.8719 82.6341 86.725 85.8043 88.4311 88.3648C90.2591 90.8034 93.062 92.0227 96.8399 92.0227C99.6428 92.0227 102.202 91.657 104.518 90.9254C106.833 90.1938 108.905 89.2183 110.733 87.999C112.683 86.6578 114.45 85.1337 116.034 83.4266C117.618 81.7196 119.141 79.9516 120.604 78.1227L122.066 78.3055C119.263 82.5731 115.668 86.292 111.281 89.4622C107.016 92.6324 101.958 94.2175 96.1087 94.2175C90.9903 94.2175 87.3343 92.6324 85.1407 89.4622C82.9471 86.1701 81.8503 82.5122 81.8503 78.4884C81.8503 72.8796 83.7393 67.1489 87.5171 61.2962C91.295 55.4436 96.0478 50.1396 101.776 45.3843C107.503 40.5071 113.779 36.5443 120.604 33.4961C127.55 30.3259 134.192 28.7408 140.529 28.7408C146.379 28.7408 150.766 29.9601 153.691 32.3987C156.737 34.7154 158.886 41.4763 158.2 47.6492C157.698 52.1637 156.737 52.6392 153.691 58.3699C150.766 64.1006 147.049 70.3191 142.54 77.0253C138.153 83.6095 133.339 90.4986 128.099 97.6925C122.858 104.764 117.479 115.224 112.97 121.809C108.583 128.393 104.866 134.489 101.819 140.098C98.8946 145.707 97.4322 150.279 97.4322 153.815C97.4322 156.986 98.1634 159.119 99.6258 160.217C101.088 161.314 102.612 161.863 104.196 161.863C108.096 161.863 112.848 160.461 118.454 157.656C124.06 154.73 129.849 150.828 135.82 145.951C141.913 141.074 147.885 135.404 153.734 128.942C159.706 122.479 165.068 115.651 169.821 108.457L217.532 28.9484H230.693Z" fill="white"/>
<path d="M335.072 144.305C336.047 153.815 338.971 160.503 343.846 162.82V163.369H310.028V162.82C312.953 162.21 315.086 160.095 316.426 158.022C317.889 155.827 318.62 152.718 318.62 148.694C318.62 146.865 318.559 145.402 318.437 144.305L309.297 39.6114L273.651 149.06H273.103L233.07 45.4091L226.306 129.49C226.062 132.66 225.94 134.855 225.94 136.075C225.94 150.828 230.82 160.259 240.813 162.82V163.369H208.092V162.82C212.114 161.723 215.704 157.595 218.628 151.986C221.675 146.378 223.564 138.879 224.295 129.49L230.693 51.4446C230.815 50.713 230.876 49.6157 230.876 48.1525C230.876 38.398 226.428 32.1796 217.532 29.4971V28.9484H243.855L280.049 123.82L310.577 28.8205H334.889V29.3692C331.964 29.9789 329.771 31.3201 328.308 33.3929C326.968 35.4658 326.297 38.453 326.297 42.3548C326.297 44.1838 326.358 45.586 326.48 46.5614L335.072 144.305Z" fill="white"/>
<path d="M425.009 70.9636L427.02 70.7807C427.568 73.707 428.3 78.8281 428.3 83.9492C428.3 106.628 415.504 126.747 390.094 126.747C371.632 126.747 360.664 113.944 360.664 95.8374C360.664 55.7832 414.772 27.6173 454.623 27.6173C470.892 27.6173 484.785 30.5436 498.312 36.2134C507.817 32.1897 517.689 28.166 528.108 27.6173L529.085 28.732C522.321 28.732 507.452 34.2015 502.882 38.591C512.205 43.895 518.237 52.4911 518.237 63.4649C518.237 84.4979 495.021 92.5453 478.021 95.2887L477.838 95.6545C493.011 97.4835 508 99.6783 508 118.882C508 145.768 482.774 162.594 457.913 162.594C447.676 162.594 435.429 157.473 435.429 146.134C435.429 139.915 440.547 134.428 446.762 134.428C450.418 134.428 453.709 135.709 456.451 138.086C451.515 141.013 449.322 145.585 449.322 150.889C449.322 157.108 452.978 160.4 459.193 160.4C478.387 160.4 490.451 136.989 490.451 119.98C490.451 103.885 482.043 96.7519 464.677 96.7519L464.859 95.2887C482.774 94.1914 501.785 84.4979 501.785 62.7333C501.785 55.9661 499.409 49.3819 494.107 44.8095C457.548 73.8899 447.494 162.594 375.105 162.594C359.567 162.594 343.846 153.998 343.846 139.001C343.846 132.051 347.685 126.015 355.363 126.015C361.029 126.015 364.503 129.856 364.503 134.977C364.503 139.55 360.846 143.025 357.922 143.573C357.739 144.305 357.739 145.036 357.739 145.768C357.739 155.644 364.502 160.4 376.75 160.4C426.654 160.4 434.149 70.4149 489.172 40.7858C479.483 33.287 465.773 29.812 453.526 29.812C418.794 29.812 375.288 55.0517 375.288 96.569C375.288 108.457 381.686 123.455 395.578 123.455C414.407 123.455 426.106 104.799 426.106 84.6808C426.106 78.8281 425.375 74.8044 425.009 70.9636Z" fill="white"/>
<path d="M527.854 162.82C529.56 161.966 530.84 160.747 531.693 159.162C532.546 157.455 532.972 154.773 532.972 151.115L533.227 39.8713C533.227 36.2134 532.8 33.5919 531.947 32.0068C531.094 30.2997 529.814 29.0195 528.108 28.166V27.6173H554.797V28.166C553.091 29.0195 551.811 30.2997 550.958 32.0068C550.105 33.5919 549.679 36.2134 549.679 39.8713L549.424 151.115C549.424 154.773 549.851 157.455 550.704 159.162C551.557 160.747 552.837 161.966 554.543 162.82V163.369H527.854V162.82Z" fill="white"/>
<path d="M642.476 167.907C641.745 164.615 639.003 162.968 634.25 162.968H567.163V162.42C568.869 161.566 570.148 160.347 571.002 158.762C571.855 157.055 572.281 154.372 572.281 150.714V41.3771C572.281 37.7192 571.855 35.0977 571.002 33.5126C570.148 31.8055 568.869 30.5253 567.163 29.6718V29.1231H619.809C624.44 29.1231 627.182 27.477 628.035 24.1849H628.583L644.304 62.7759H643.573C639.186 55.9478 635.164 50.5219 631.508 46.4982C627.852 42.3525 624.135 39.1214 620.357 36.8047C616.701 34.488 613.411 32.9639 610.486 32.2323C607.561 31.3788 604.576 30.952 601.529 30.952C596.898 30.952 593.608 31.7446 591.658 33.3297C589.708 34.7928 588.733 37.2924 588.733 40.8284L589.061 85.7782H609.534C614.531 85.7782 617.943 84.254 619.771 81.2058C621.721 78.1575 622.574 73.4022 622.33 66.9399H622.879L634.212 105.165H633.664C630.13 98.9467 626.596 94.4962 623.062 91.8137C619.527 89.0093 615.018 87.6071 609.534 87.6071H589.061L588.733 147.239C588.733 152.604 590.195 156.262 593.12 158.213C596.045 160.164 601.224 161.139 608.658 161.139C613.898 161.139 618.59 160.591 622.734 159.493C626.877 158.396 630.838 156.384 634.616 153.458C638.15 150.653 641.989 146.63 646.132 141.387C650.398 136.144 654.602 129.62 658.745 121.817H659.477L643.025 167.907H642.476ZM594.362 20.3014V19.7527L624.158 0H624.707C624.463 1.46316 624.341 2.6215 624.341 3.47502C624.341 6.03557 624.89 8.35225 625.986 10.4251C627.083 12.4979 628.667 13.8391 630.739 14.4488V14.9975L594.362 20.3014Z" fill="white"/>
<path d="M683.021 164.058C682.899 163.326 681.985 162.107 680.279 160.4L674.43 154.547C672.967 153.084 671.749 152.23 670.774 151.986V151.438C671.749 151.194 672.967 150.34 674.43 148.877L680.279 143.025C681.985 141.318 682.899 140.098 683.021 139.367H683.752C683.874 140.098 684.788 141.318 686.494 143.025L692.344 148.877C693.928 150.462 695.147 151.316 696 151.438V151.986C695.147 152.108 693.928 152.962 692.344 154.547L686.494 160.4C684.788 162.107 683.874 163.326 683.752 164.058H683.021Z" fill="white"/>
</svg>
